# xmcd CD database file
#
# Track frame offsets:
#	187
#	18965
#	37965
#	57307
#	77450
#	94752
#	118235
#	138172
#	157095
#	176732
#	190620
#
# Disc length: 2743 seconds
#
# Revision: 0
# Processed by: cddbd v1.5.1PL0 Copyright (c) Steve Scherf et al.
# Submitted via: CDex 1.51
#
DISCID=860ab50b
DTITLE=高橋ひとみ - カラフル
DYEAR=1991
DGENRE=Pop
TTITLE0=四月わたしに花が咲く
TTITLE1=綺麗になりましょREVOLUTION
TTITLE2=選んだのは《赤》
TTITLE3=転居先不明
TTITLE4=あやまらなくちゃ
TTITLE5=FMから夏
TTITLE6=七夕じゃなくていいから
TTITLE7=惚れっぽい秋っぽい
TTITLE8=指紋
TTITLE9=恋うたかたの乙女
TTITLE10=X'mas Kissしてね
EXTD=YEAR: 1991
EXTT0=
EXTT1=
EXTT2=
EXTT3=
EXTT4=
EXTT5=
EXTT6=
EXTT7=
EXTT8=
EXTT9=
EXTT10=
PLAYORDER=
